<mxfile host="app.diagrams.net" agent="Mozilla/5.0 (Windows NT 10.0; Win64; x64) AppleWebKit/537.36 (KHTML, like Gecko) Chrome/134.0.0.0 Safari/537.36" version="26.2.8">
  <diagram name="PÃ¡gina-1" id="e_0wsC6TIL103NjYNLuy">
    <mxGraphModel grid="1" page="1" gridSize="10" guides="1" tooltips="1" connect="1" arrows="1" fold="1" pageScale="1" pageWidth="827" pageHeight="1169" math="0" shadow="0">
      <root>
        <mxCell id="0" />
        <mxCell id="1" parent="0" />
        <mxCell id="Tgz7Qvu2k7bWYLfT2SAW-71" style="rounded=0;orthogonalLoop=1;jettySize=auto;html=1;exitX=0;exitY=0;exitDx=0;exitDy=0;endArrow=oval;endFill=1;entryX=0.529;entryY=0.905;entryDx=0;entryDy=0;entryPerimeter=0;" edge="1" parent="1" source="kP8dAD_jrm5b0dCdeW7q-1" target="Tgz7Qvu2k7bWYLfT2SAW-65">
          <mxGeometry relative="1" as="geometry">
            <mxPoint x="-206.5" y="-506.9320388349513" as="targetPoint" />
          </mxGeometry>
        </mxCell>
        <mxCell id="eBRN4WL1ZEEqgl-zLK-s-4" style="edgeStyle=orthogonalEdgeStyle;rounded=0;orthogonalLoop=1;jettySize=auto;html=1;exitX=1;exitY=0.5;exitDx=0;exitDy=0;entryX=0;entryY=0.5;entryDx=0;entryDy=0;endArrow=none;startFill=0;startArrow=none;" edge="1" parent="1" source="kP8dAD_jrm5b0dCdeW7q-1" target="Tgz7Qvu2k7bWYLfT2SAW-30">
          <mxGeometry relative="1" as="geometry" />
        </mxCell>
        <mxCell id="kP8dAD_jrm5b0dCdeW7q-1" value="INSTITUTO" style="rounded=0;whiteSpace=wrap;html=1;" vertex="1" parent="1">
          <mxGeometry x="-170" y="-480" width="120" height="60" as="geometry" />
        </mxCell>
        <mxCell id="C90hnJhmOTNESrinXxfF-31" style="rounded=0;orthogonalLoop=1;jettySize=auto;html=1;exitX=0.75;exitY=0;exitDx=0;exitDy=0;endArrow=oval;endFill=0;" edge="1" parent="1" source="kP8dAD_jrm5b0dCdeW7q-2" target="C90hnJhmOTNESrinXxfF-30">
          <mxGeometry relative="1" as="geometry" />
        </mxCell>
        <mxCell id="kP8dAD_jrm5b0dCdeW7q-2" value="ACTIVIDAD FORMATIVA" style="rounded=0;whiteSpace=wrap;html=1;" vertex="1" parent="1">
          <mxGeometry x="1018" y="-458.5" width="120" height="60" as="geometry" />
        </mxCell>
        <mxCell id="eBRN4WL1ZEEqgl-zLK-s-28" style="edgeStyle=orthogonalEdgeStyle;rounded=0;orthogonalLoop=1;jettySize=auto;html=1;exitX=0;exitY=0.5;exitDx=0;exitDy=0;entryX=1;entryY=0.5;entryDx=0;entryDy=0;endArrow=none;startFill=0;" edge="1" parent="1" source="kP8dAD_jrm5b0dCdeW7q-3" target="DT7l3WgkB1Yh6jrNEn3l-28">
          <mxGeometry relative="1" as="geometry" />
        </mxCell>
        <mxCell id="eBRN4WL1ZEEqgl-zLK-s-30" style="edgeStyle=orthogonalEdgeStyle;rounded=0;orthogonalLoop=1;jettySize=auto;html=1;entryX=0.5;entryY=0;entryDx=0;entryDy=0;endArrow=none;startFill=0;" edge="1" parent="1" source="kP8dAD_jrm5b0dCdeW7q-3" target="i2WU7JlJFQg8zrvrk9Qy-5">
          <mxGeometry relative="1" as="geometry" />
        </mxCell>
        <mxCell id="eBRN4WL1ZEEqgl-zLK-s-68" style="rounded=0;orthogonalLoop=1;jettySize=auto;html=1;exitX=0.75;exitY=0;exitDx=0;exitDy=0;endArrow=oval;endFill=0;" edge="1" parent="1" source="kP8dAD_jrm5b0dCdeW7q-3" target="eBRN4WL1ZEEqgl-zLK-s-66">
          <mxGeometry relative="1" as="geometry" />
        </mxCell>
        <mxCell id="kP8dAD_jrm5b0dCdeW7q-3" value="CALENDARIO" style="rounded=0;whiteSpace=wrap;html=1;" vertex="1" parent="1">
          <mxGeometry x="640" y="565" width="120" height="60" as="geometry" />
        </mxCell>
        <mxCell id="eBRN4WL1ZEEqgl-zLK-s-10" style="edgeStyle=orthogonalEdgeStyle;rounded=0;orthogonalLoop=1;jettySize=auto;html=1;entryX=0;entryY=0.5;entryDx=0;entryDy=0;endArrow=none;startFill=0;" edge="1" parent="1" source="kP8dAD_jrm5b0dCdeW7q-4" target="jyFi_7OY-xpQh8csej5u-16">
          <mxGeometry relative="1" as="geometry" />
        </mxCell>
        <mxCell id="eBRN4WL1ZEEqgl-zLK-s-61" style="edgeStyle=orthogonalEdgeStyle;rounded=0;orthogonalLoop=1;jettySize=auto;html=1;exitX=0.75;exitY=1;exitDx=0;exitDy=0;entryX=0.5;entryY=0;entryDx=0;entryDy=0;startArrow=classic;startFill=1;endArrow=none;" edge="1" parent="1" source="kP8dAD_jrm5b0dCdeW7q-4" target="jyFi_7OY-xpQh8csej5u-13">
          <mxGeometry relative="1" as="geometry">
            <Array as="points">
              <mxPoint x="712" y="-340" />
              <mxPoint x="1269" y="-340" />
            </Array>
          </mxGeometry>
        </mxCell>
        <mxCell id="eBRN4WL1ZEEqgl-zLK-s-72" style="edgeStyle=orthogonalEdgeStyle;rounded=0;orthogonalLoop=1;jettySize=auto;html=1;exitX=0.25;exitY=1;exitDx=0;exitDy=0;entryX=0.5;entryY=0;entryDx=0;entryDy=0;endArrow=none;startFill=0;" edge="1" parent="1" source="kP8dAD_jrm5b0dCdeW7q-4" target="i2WU7JlJFQg8zrvrk9Qy-40">
          <mxGeometry relative="1" as="geometry">
            <Array as="points">
              <mxPoint x="652" y="-160" />
              <mxPoint x="704" y="-160" />
            </Array>
          </mxGeometry>
        </mxCell>
        <mxCell id="kP8dAD_jrm5b0dCdeW7q-4" value="EVALUACION" style="rounded=0;whiteSpace=wrap;html=1;" vertex="1" parent="1">
          <mxGeometry x="622.5" y="-459" width="120" height="60" as="geometry" />
        </mxCell>
        <mxCell id="Tgz7Qvu2k7bWYLfT2SAW-111" style="rounded=0;orthogonalLoop=1;jettySize=auto;html=1;exitX=0;exitY=0;exitDx=0;exitDy=0;endArrow=oval;endFill=1;" edge="1" parent="1" source="kP8dAD_jrm5b0dCdeW7q-5">
          <mxGeometry relative="1" as="geometry">
            <mxPoint x="719.5" y="-223.75" as="targetPoint" />
          </mxGeometry>
        </mxCell>
        <mxCell id="Tgz7Qvu2k7bWYLfT2SAW-113" style="rounded=0;orthogonalLoop=1;jettySize=auto;html=1;exitX=0.5;exitY=0;exitDx=0;exitDy=0;endArrow=oval;endFill=0;" edge="1" parent="1" source="kP8dAD_jrm5b0dCdeW7q-5" target="Tgz7Qvu2k7bWYLfT2SAW-107">
          <mxGeometry relative="1" as="geometry" />
        </mxCell>
        <mxCell id="Tgz7Qvu2k7bWYLfT2SAW-114" style="rounded=0;orthogonalLoop=1;jettySize=auto;html=1;exitX=0.633;exitY=-0.025;exitDx=0;exitDy=0;endArrow=oval;endFill=0;exitPerimeter=0;" edge="1" parent="1" source="kP8dAD_jrm5b0dCdeW7q-5" target="Tgz7Qvu2k7bWYLfT2SAW-108">
          <mxGeometry relative="1" as="geometry" />
        </mxCell>
        <mxCell id="DT7l3WgkB1Yh6jrNEn3l-17" style="edgeStyle=orthogonalEdgeStyle;rounded=0;orthogonalLoop=1;jettySize=auto;html=1;exitX=0.5;exitY=1;exitDx=0;exitDy=0;entryX=0.5;entryY=0;entryDx=0;entryDy=0;fontSize=12;startSize=8;endSize=8;endArrow=none;startFill=0;" edge="1" parent="1" source="kP8dAD_jrm5b0dCdeW7q-5" target="8JAtajd1r-GjUV28Kf3z-32">
          <mxGeometry relative="1" as="geometry" />
        </mxCell>
        <mxCell id="DT7l3WgkB1Yh6jrNEn3l-18" style="edgeStyle=orthogonalEdgeStyle;rounded=0;orthogonalLoop=1;jettySize=auto;html=1;exitX=1;exitY=0.5;exitDx=0;exitDy=0;entryX=0;entryY=0.5;entryDx=0;entryDy=0;fontSize=12;startSize=8;endSize=8;endArrow=none;startFill=0;" edge="1" parent="1" source="kP8dAD_jrm5b0dCdeW7q-5" target="Tgz7Qvu2k7bWYLfT2SAW-8">
          <mxGeometry relative="1" as="geometry" />
        </mxCell>
        <mxCell id="kP8dAD_jrm5b0dCdeW7q-5" value="EMPRESA" style="rounded=0;whiteSpace=wrap;html=1;" vertex="1" parent="1">
          <mxGeometry x="764.5" y="-190" width="120" height="60" as="geometry" />
        </mxCell>
        <mxCell id="8JAtajd1r-GjUV28Kf3z-18" style="rounded=0;orthogonalLoop=1;jettySize=auto;html=1;exitX=0.75;exitY=0;exitDx=0;exitDy=0;entryX=0.5;entryY=1.033;entryDx=0;entryDy=0;entryPerimeter=0;endArrow=oval;endFill=1;" edge="1" parent="1" source="kP8dAD_jrm5b0dCdeW7q-6" target="8JAtajd1r-GjUV28Kf3z-20">
          <mxGeometry relative="1" as="geometry">
            <mxPoint x="397.5" y="938" as="targetPoint" />
          </mxGeometry>
        </mxCell>
        <mxCell id="8JAtajd1r-GjUV28Kf3z-19" style="rounded=0;orthogonalLoop=1;jettySize=auto;html=1;exitX=1;exitY=0;exitDx=0;exitDy=0;entryX=0.556;entryY=0.933;entryDx=0;entryDy=0;entryPerimeter=0;endArrow=oval;endFill=0;" edge="1" parent="1" source="kP8dAD_jrm5b0dCdeW7q-6" target="8JAtajd1r-GjUV28Kf3z-21">
          <mxGeometry relative="1" as="geometry">
            <mxPoint x="437.5" y="938" as="targetPoint" />
          </mxGeometry>
        </mxCell>
        <mxCell id="eBRN4WL1ZEEqgl-zLK-s-25" style="edgeStyle=orthogonalEdgeStyle;rounded=0;orthogonalLoop=1;jettySize=auto;html=1;exitX=0.5;exitY=0;exitDx=0;exitDy=0;endArrow=none;startFill=0;" edge="1" parent="1" source="kP8dAD_jrm5b0dCdeW7q-6" target="DT7l3WgkB1Yh6jrNEn3l-26">
          <mxGeometry relative="1" as="geometry" />
        </mxCell>
        <mxCell id="eBRN4WL1ZEEqgl-zLK-s-56" style="edgeStyle=orthogonalEdgeStyle;rounded=0;orthogonalLoop=1;jettySize=auto;html=1;entryX=0.5;entryY=1;entryDx=0;entryDy=0;startArrow=classic;startFill=1;endArrow=none;" edge="1" parent="1" source="kP8dAD_jrm5b0dCdeW7q-6" target="DT7l3WgkB1Yh6jrNEn3l-30">
          <mxGeometry relative="1" as="geometry" />
        </mxCell>
        <mxCell id="kP8dAD_jrm5b0dCdeW7q-6" value="CONVENIO" style="rounded=0;whiteSpace=wrap;html=1;" vertex="1" parent="1">
          <mxGeometry x="280" y="1008" width="120" height="60" as="geometry" />
        </mxCell>
        <mxCell id="VHoaW_7UEEQLHa_jej99-4" style="edgeStyle=orthogonalEdgeStyle;rounded=0;orthogonalLoop=1;jettySize=auto;html=1;entryX=0;entryY=0.5;entryDx=0;entryDy=0;endArrow=none;startFill=0;" edge="1" parent="1" source="kP8dAD_jrm5b0dCdeW7q-7" target="VHoaW_7UEEQLHa_jej99-3">
          <mxGeometry relative="1" as="geometry" />
        </mxCell>
        <mxCell id="kP8dAD_jrm5b0dCdeW7q-7" value="CICLO FORMATIVO" style="rounded=0;whiteSpace=wrap;html=1;" vertex="1" parent="1">
          <mxGeometry x="-170" y="-289.5" width="120" height="60" as="geometry" />
        </mxCell>
        <mxCell id="eBRN4WL1ZEEqgl-zLK-s-54" style="edgeStyle=orthogonalEdgeStyle;rounded=0;orthogonalLoop=1;jettySize=auto;html=1;entryX=0.5;entryY=0;entryDx=0;entryDy=0;endArrow=none;startFill=0;" edge="1" parent="1" source="kP8dAD_jrm5b0dCdeW7q-8" target="Tgz7Qvu2k7bWYLfT2SAW-33">
          <mxGeometry relative="1" as="geometry" />
        </mxCell>
        <mxCell id="kP8dAD_jrm5b0dCdeW7q-8" value="CURSO" style="rounded=0;whiteSpace=wrap;html=1;" vertex="1" parent="1">
          <mxGeometry x="396.5" y="-130" width="120" height="60" as="geometry" />
        </mxCell>
        <mxCell id="eBRN4WL1ZEEqgl-zLK-s-62" style="edgeStyle=orthogonalEdgeStyle;rounded=0;orthogonalLoop=1;jettySize=auto;html=1;exitX=0.75;exitY=0;exitDx=0;exitDy=0;entryX=0.5;entryY=1;entryDx=0;entryDy=0;endArrow=none;startFill=0;" edge="1" parent="1" source="kP8dAD_jrm5b0dCdeW7q-10" target="jyFi_7OY-xpQh8csej5u-13">
          <mxGeometry relative="1" as="geometry" />
        </mxCell>
        <mxCell id="kP8dAD_jrm5b0dCdeW7q-10" value="TUTOR LABORAL" style="rounded=0;whiteSpace=wrap;html=1;" vertex="1" parent="1">
          <mxGeometry x="1121" y="180" width="120" height="60" as="geometry" />
        </mxCell>
        <mxCell id="kP8dAD_jrm5b0dCdeW7q-11" value="TUTOR DOCENTE" style="rounded=0;whiteSpace=wrap;html=1;" vertex="1" parent="1">
          <mxGeometry x="-30" y="-150" width="120" height="60" as="geometry" />
        </mxCell>
        <mxCell id="eBRN4WL1ZEEqgl-zLK-s-16" style="edgeStyle=orthogonalEdgeStyle;rounded=0;orthogonalLoop=1;jettySize=auto;html=1;exitX=0.5;exitY=1;exitDx=0;exitDy=0;entryX=0.5;entryY=0;entryDx=0;entryDy=0;endArrow=none;startFill=0;" edge="1" parent="1" source="kP8dAD_jrm5b0dCdeW7q-13" target="DT7l3WgkB1Yh6jrNEn3l-27">
          <mxGeometry relative="1" as="geometry" />
        </mxCell>
        <mxCell id="kP8dAD_jrm5b0dCdeW7q-13" value="ALUMNO" style="rounded=0;whiteSpace=wrap;html=1;" vertex="1" parent="1">
          <mxGeometry x="532.5" y="183" width="120" height="60" as="geometry" />
        </mxCell>
        <mxCell id="Tgz7Qvu2k7bWYLfT2SAW-117" style="rounded=0;orthogonalLoop=1;jettySize=auto;html=1;exitX=1;exitY=0;exitDx=0;exitDy=0;entryX=0.3;entryY=1;entryDx=0;entryDy=0;entryPerimeter=0;endArrow=oval;endFill=1;" edge="1" parent="1" source="kP8dAD_jrm5b0dCdeW7q-26" target="Tgz7Qvu2k7bWYLfT2SAW-118">
          <mxGeometry relative="1" as="geometry">
            <mxPoint x="940" y="150" as="targetPoint" />
          </mxGeometry>
        </mxCell>
        <mxCell id="kP8dAD_jrm5b0dCdeW7q-26" value="SEDE" style="whiteSpace=wrap;html=1;" vertex="1" parent="1">
          <mxGeometry x="764" y="185" width="120" height="60" as="geometry" />
        </mxCell>
        <mxCell id="DT7l3WgkB1Yh6jrNEn3l-19" style="edgeStyle=orthogonalEdgeStyle;rounded=0;orthogonalLoop=1;jettySize=auto;html=1;entryX=0.25;entryY=0;entryDx=0;entryDy=0;fontSize=12;startSize=8;endSize=8;" edge="1" parent="1" source="Tgz7Qvu2k7bWYLfT2SAW-8" target="kP8dAD_jrm5b0dCdeW7q-10">
          <mxGeometry relative="1" as="geometry" />
        </mxCell>
        <mxCell id="Tgz7Qvu2k7bWYLfT2SAW-8" value="pertenece" style="rhombus;whiteSpace=wrap;html=1;" vertex="1" parent="1">
          <mxGeometry x="1050" y="-200" width="80" height="80" as="geometry" />
        </mxCell>
        <mxCell id="8JAtajd1r-GjUV28Kf3z-22" style="edgeStyle=orthogonalEdgeStyle;rounded=0;orthogonalLoop=1;jettySize=auto;html=1;exitX=0.5;exitY=0;exitDx=0;exitDy=0;endArrow=none;startFill=0;" edge="1" parent="1" source="Tgz7Qvu2k7bWYLfT2SAW-12" target="kP8dAD_jrm5b0dCdeW7q-10">
          <mxGeometry relative="1" as="geometry" />
        </mxCell>
        <mxCell id="DT7l3WgkB1Yh6jrNEn3l-29" style="edgeStyle=orthogonalEdgeStyle;rounded=0;orthogonalLoop=1;jettySize=auto;html=1;entryX=1;entryY=0.5;entryDx=0;entryDy=0;fontSize=12;startSize=8;endSize=8;" edge="1" parent="1" source="Tgz7Qvu2k7bWYLfT2SAW-12" target="kP8dAD_jrm5b0dCdeW7q-6">
          <mxGeometry relative="1" as="geometry" />
        </mxCell>
        <mxCell id="Tgz7Qvu2k7bWYLfT2SAW-12" value="firma" style="rhombus;whiteSpace=wrap;html=1;" vertex="1" parent="1">
          <mxGeometry x="1141" y="998" width="80" height="80" as="geometry" />
        </mxCell>
        <mxCell id="VHoaW_7UEEQLHa_jej99-1" style="edgeStyle=orthogonalEdgeStyle;rounded=0;orthogonalLoop=1;jettySize=auto;html=1;entryX=0;entryY=0.5;entryDx=0;entryDy=0;" edge="1" parent="1" source="Tgz7Qvu2k7bWYLfT2SAW-30" target="NNg-buT7qz7WShZYyG6_-1">
          <mxGeometry relative="1" as="geometry" />
        </mxCell>
        <mxCell id="Tgz7Qvu2k7bWYLfT2SAW-30" value="ofrece" style="rhombus;whiteSpace=wrap;html=1;" vertex="1" parent="1">
          <mxGeometry x="49.5" y="-490" width="80" height="80" as="geometry" />
        </mxCell>
        <mxCell id="eBRN4WL1ZEEqgl-zLK-s-53" style="edgeStyle=orthogonalEdgeStyle;rounded=0;orthogonalLoop=1;jettySize=auto;html=1;entryX=0.5;entryY=0;entryDx=0;entryDy=0;" edge="1" parent="1" source="Tgz7Qvu2k7bWYLfT2SAW-31" target="kP8dAD_jrm5b0dCdeW7q-8">
          <mxGeometry relative="1" as="geometry" />
        </mxCell>
        <mxCell id="Tgz7Qvu2k7bWYLfT2SAW-31" value="tiene" style="rhombus;whiteSpace=wrap;html=1;" vertex="1" parent="1">
          <mxGeometry x="416.5" y="-400" width="80" height="80" as="geometry" />
        </mxCell>
        <mxCell id="eBRN4WL1ZEEqgl-zLK-s-55" style="edgeStyle=orthogonalEdgeStyle;rounded=0;orthogonalLoop=1;jettySize=auto;html=1;entryX=0;entryY=0.5;entryDx=0;entryDy=0;" edge="1" parent="1" source="Tgz7Qvu2k7bWYLfT2SAW-33" target="kP8dAD_jrm5b0dCdeW7q-13">
          <mxGeometry relative="1" as="geometry">
            <Array as="points">
              <mxPoint x="457" y="213" />
            </Array>
          </mxGeometry>
        </mxCell>
        <mxCell id="Tgz7Qvu2k7bWYLfT2SAW-33" value="tiene" style="rhombus;whiteSpace=wrap;html=1;" vertex="1" parent="1">
          <mxGeometry x="416.5" y="40" width="80" height="80" as="geometry" />
        </mxCell>
        <mxCell id="Tgz7Qvu2k7bWYLfT2SAW-65" value="id" style="text;html=1;align=center;verticalAlign=middle;resizable=0;points=[];autosize=1;strokeColor=none;fillColor=none;" vertex="1" parent="1">
          <mxGeometry x="-230" y="-540" width="30" height="30" as="geometry" />
        </mxCell>
        <mxCell id="Tgz7Qvu2k7bWYLfT2SAW-67" value="nombre" style="text;html=1;align=center;verticalAlign=middle;resizable=0;points=[];autosize=1;strokeColor=none;fillColor=none;" vertex="1" parent="1">
          <mxGeometry x="-206.75" y="-540" width="60" height="30" as="geometry" />
        </mxCell>
        <mxCell id="Tgz7Qvu2k7bWYLfT2SAW-69" value="direccion" style="text;html=1;align=center;verticalAlign=middle;resizable=0;points=[];autosize=1;strokeColor=none;fillColor=none;" vertex="1" parent="1">
          <mxGeometry x="-57" y="-539" width="70" height="30" as="geometry" />
        </mxCell>
        <mxCell id="Tgz7Qvu2k7bWYLfT2SAW-70" value="localidad" style="text;html=1;align=center;verticalAlign=middle;resizable=0;points=[];autosize=1;strokeColor=none;fillColor=none;" vertex="1" parent="1">
          <mxGeometry x="-120" y="-539" width="70" height="30" as="geometry" />
        </mxCell>
        <mxCell id="Tgz7Qvu2k7bWYLfT2SAW-72" style="rounded=0;orthogonalLoop=1;jettySize=auto;html=1;exitX=0.25;exitY=0;exitDx=0;exitDy=0;entryX=0.517;entryY=0.95;entryDx=0;entryDy=0;entryPerimeter=0;endArrow=oval;endFill=0;" edge="1" parent="1" source="kP8dAD_jrm5b0dCdeW7q-1">
          <mxGeometry relative="1" as="geometry">
            <mxPoint x="-175.48000000000002" y="-509.5" as="targetPoint" />
          </mxGeometry>
        </mxCell>
        <mxCell id="Tgz7Qvu2k7bWYLfT2SAW-73" style="rounded=0;orthogonalLoop=1;jettySize=auto;html=1;exitX=0.75;exitY=0;exitDx=0;exitDy=0;entryX=0.511;entryY=0.967;entryDx=0;entryDy=0;entryPerimeter=0;endArrow=oval;endFill=0;" edge="1" parent="1" source="kP8dAD_jrm5b0dCdeW7q-1" target="Tgz7Qvu2k7bWYLfT2SAW-70">
          <mxGeometry relative="1" as="geometry">
            <mxPoint x="-80.51999999999998" y="-505.75" as="targetPoint" />
          </mxGeometry>
        </mxCell>
        <mxCell id="Tgz7Qvu2k7bWYLfT2SAW-74" style="rounded=0;orthogonalLoop=1;jettySize=auto;html=1;exitX=1;exitY=0;exitDx=0;exitDy=0;entryX=0.386;entryY=0.967;entryDx=0;entryDy=0;entryPerimeter=0;endArrow=oval;endFill=0;" edge="1" parent="1" source="kP8dAD_jrm5b0dCdeW7q-1" target="Tgz7Qvu2k7bWYLfT2SAW-69">
          <mxGeometry relative="1" as="geometry">
            <mxPoint x="-32.750000000000455" y="-507.0100000000002" as="targetPoint" />
          </mxGeometry>
        </mxCell>
        <mxCell id="Tgz7Qvu2k7bWYLfT2SAW-75" value="email" style="text;html=1;align=center;verticalAlign=middle;resizable=0;points=[];autosize=1;strokeColor=none;fillColor=none;" vertex="1" parent="1">
          <mxGeometry x="-156.75" y="-540" width="50" height="30" as="geometry" />
        </mxCell>
        <mxCell id="Tgz7Qvu2k7bWYLfT2SAW-76" style="rounded=0;orthogonalLoop=1;jettySize=auto;html=1;exitX=0.5;exitY=0;exitDx=0;exitDy=0;entryX=0.5;entryY=0.908;entryDx=0;entryDy=0;entryPerimeter=0;endArrow=oval;endFill=0;" edge="1" parent="1" source="kP8dAD_jrm5b0dCdeW7q-1">
          <mxGeometry relative="1" as="geometry">
            <mxPoint x="-131.5" y="-510.7600000000002" as="targetPoint" />
          </mxGeometry>
        </mxCell>
        <mxCell id="Tgz7Qvu2k7bWYLfT2SAW-92" style="rounded=0;orthogonalLoop=1;jettySize=auto;html=1;exitX=0.25;exitY=0;exitDx=0;exitDy=0;endArrow=oval;endFill=0;" edge="1" parent="1" source="2BAsR_BSLu4NLGfuRWQs-1" target="Tgz7Qvu2k7bWYLfT2SAW-84">
          <mxGeometry relative="1" as="geometry" />
        </mxCell>
        <mxCell id="DT7l3WgkB1Yh6jrNEn3l-32" style="edgeStyle=orthogonalEdgeStyle;rounded=0;orthogonalLoop=1;jettySize=auto;html=1;exitX=0.5;exitY=1;exitDx=0;exitDy=0;entryX=0;entryY=0.5;entryDx=0;entryDy=0;fontSize=12;startSize=8;endSize=8;" edge="1" parent="1" source="2BAsR_BSLu4NLGfuRWQs-1" target="2BAsR_BSLu4NLGfuRWQs-2">
          <mxGeometry relative="1" as="geometry" />
        </mxCell>
        <mxCell id="2BAsR_BSLu4NLGfuRWQs-1" value="PERSONA" style="rounded=0;whiteSpace=wrap;html=1;" vertex="1" parent="1">
          <mxGeometry x="532.5" y="-760" width="120" height="60" as="geometry" />
        </mxCell>
        <mxCell id="DT7l3WgkB1Yh6jrNEn3l-20" style="edgeStyle=orthogonalEdgeStyle;rounded=0;orthogonalLoop=1;jettySize=auto;html=1;exitX=0.5;exitY=0;exitDx=0;exitDy=0;entryX=1;entryY=0.5;entryDx=0;entryDy=0;fontSize=12;startSize=8;endSize=8;" edge="1" parent="1" source="2BAsR_BSLu4NLGfuRWQs-2" target="kP8dAD_jrm5b0dCdeW7q-10">
          <mxGeometry relative="1" as="geometry">
            <Array as="points">
              <mxPoint x="1550" y="-580" />
              <mxPoint x="1550" y="210" />
            </Array>
          </mxGeometry>
        </mxCell>
        <mxCell id="DT7l3WgkB1Yh6jrNEn3l-33" style="edgeStyle=orthogonalEdgeStyle;rounded=0;orthogonalLoop=1;jettySize=auto;html=1;entryX=0.5;entryY=0;entryDx=0;entryDy=0;fontSize=12;startSize=8;endSize=8;" edge="1" parent="1" source="2BAsR_BSLu4NLGfuRWQs-2" target="kP8dAD_jrm5b0dCdeW7q-13">
          <mxGeometry relative="1" as="geometry" />
        </mxCell>
        <mxCell id="eBRN4WL1ZEEqgl-zLK-s-58" style="edgeStyle=orthogonalEdgeStyle;rounded=0;orthogonalLoop=1;jettySize=auto;html=1;exitX=0.5;exitY=1;exitDx=0;exitDy=0;entryX=0;entryY=0.5;entryDx=0;entryDy=0;" edge="1" parent="1" source="2BAsR_BSLu4NLGfuRWQs-2" target="kP8dAD_jrm5b0dCdeW7q-11">
          <mxGeometry relative="1" as="geometry">
            <Array as="points">
              <mxPoint x="-270" y="-580" />
              <mxPoint x="-270" y="-120" />
            </Array>
          </mxGeometry>
        </mxCell>
        <mxCell id="2BAsR_BSLu4NLGfuRWQs-2" value="" style="triangle;whiteSpace=wrap;html=1;rotation=90;" vertex="1" parent="1">
          <mxGeometry x="562.5" y="-620" width="60" height="80" as="geometry" />
        </mxCell>
        <mxCell id="Tgz7Qvu2k7bWYLfT2SAW-83" value="id" style="text;html=1;align=center;verticalAlign=middle;resizable=0;points=[];autosize=1;strokeColor=none;fillColor=none;" vertex="1" parent="1">
          <mxGeometry x="406.5" y="-820" width="30" height="30" as="geometry" />
        </mxCell>
        <mxCell id="Tgz7Qvu2k7bWYLfT2SAW-84" value="nombre" style="text;html=1;align=center;verticalAlign=middle;resizable=0;points=[];autosize=1;strokeColor=none;fillColor=none;" vertex="1" parent="1">
          <mxGeometry x="436.5" y="-820" width="60" height="30" as="geometry" />
        </mxCell>
        <mxCell id="Tgz7Qvu2k7bWYLfT2SAW-87" value="fecha_nacimento" style="text;html=1;align=center;verticalAlign=middle;resizable=0;points=[];autosize=1;strokeColor=none;fillColor=none;" vertex="1" parent="1">
          <mxGeometry x="602.5" y="-820" width="110" height="30" as="geometry" />
        </mxCell>
        <mxCell id="Tgz7Qvu2k7bWYLfT2SAW-85" value="apellidos" style="text;html=1;align=center;verticalAlign=middle;resizable=0;points=[];autosize=1;strokeColor=none;fillColor=none;" vertex="1" parent="1">
          <mxGeometry x="492.5" y="-820" width="70" height="30" as="geometry" />
        </mxCell>
        <mxCell id="Tgz7Qvu2k7bWYLfT2SAW-88" value="dni" style="text;html=1;align=center;verticalAlign=middle;resizable=0;points=[];autosize=1;strokeColor=none;fillColor=none;" vertex="1" parent="1">
          <mxGeometry x="702.5" y="-820" width="40" height="30" as="geometry" />
        </mxCell>
        <mxCell id="Tgz7Qvu2k7bWYLfT2SAW-89" value="telefono" style="text;html=1;align=center;verticalAlign=middle;resizable=0;points=[];autosize=1;strokeColor=none;fillColor=none;" vertex="1" parent="1">
          <mxGeometry x="545.5" y="-820" width="70" height="30" as="geometry" />
        </mxCell>
        <mxCell id="Tgz7Qvu2k7bWYLfT2SAW-90" value="direccion" style="text;html=1;align=center;verticalAlign=middle;resizable=0;points=[];autosize=1;strokeColor=none;fillColor=none;" vertex="1" parent="1">
          <mxGeometry x="727.5" y="-820" width="70" height="30" as="geometry" />
        </mxCell>
        <mxCell id="Tgz7Qvu2k7bWYLfT2SAW-91" style="rounded=0;orthogonalLoop=1;jettySize=auto;html=1;exitX=0;exitY=0;exitDx=0;exitDy=0;endArrow=oval;endFill=1;" edge="1" parent="1" source="2BAsR_BSLu4NLGfuRWQs-1" target="Tgz7Qvu2k7bWYLfT2SAW-83">
          <mxGeometry relative="1" as="geometry" />
        </mxCell>
        <mxCell id="Tgz7Qvu2k7bWYLfT2SAW-93" style="rounded=0;orthogonalLoop=1;jettySize=auto;html=1;exitX=0.5;exitY=0;exitDx=0;exitDy=0;entryX=0.586;entryY=0.933;entryDx=0;entryDy=0;entryPerimeter=0;endArrow=oval;endFill=0;" edge="1" parent="1" source="2BAsR_BSLu4NLGfuRWQs-1" target="Tgz7Qvu2k7bWYLfT2SAW-85">
          <mxGeometry relative="1" as="geometry" />
        </mxCell>
        <mxCell id="Tgz7Qvu2k7bWYLfT2SAW-94" style="rounded=0;orthogonalLoop=1;jettySize=auto;html=1;exitX=0.75;exitY=0;exitDx=0;exitDy=0;entryX=0.42;entryY=0.892;entryDx=0;entryDy=0;entryPerimeter=0;endArrow=oval;endFill=0;" edge="1" parent="1" source="2BAsR_BSLu4NLGfuRWQs-1" target="Tgz7Qvu2k7bWYLfT2SAW-87">
          <mxGeometry relative="1" as="geometry" />
        </mxCell>
        <mxCell id="Tgz7Qvu2k7bWYLfT2SAW-95" style="rounded=0;orthogonalLoop=1;jettySize=auto;html=1;exitX=0.871;exitY=-0.004;exitDx=0;exitDy=0;entryX=0.444;entryY=1.058;entryDx=0;entryDy=0;entryPerimeter=0;endArrow=oval;endFill=0;exitPerimeter=0;" edge="1" parent="1" source="2BAsR_BSLu4NLGfuRWQs-1" target="Tgz7Qvu2k7bWYLfT2SAW-88">
          <mxGeometry relative="1" as="geometry" />
        </mxCell>
        <mxCell id="Tgz7Qvu2k7bWYLfT2SAW-96" style="rounded=0;orthogonalLoop=1;jettySize=auto;html=1;exitX=0.6;exitY=-0.025;exitDx=0;exitDy=0;entryX=0.482;entryY=0.975;entryDx=0;entryDy=0;entryPerimeter=0;endArrow=oval;endFill=0;exitPerimeter=0;" edge="1" parent="1" source="2BAsR_BSLu4NLGfuRWQs-1" target="Tgz7Qvu2k7bWYLfT2SAW-89">
          <mxGeometry relative="1" as="geometry" />
        </mxCell>
        <mxCell id="Tgz7Qvu2k7bWYLfT2SAW-98" style="rounded=0;orthogonalLoop=1;jettySize=auto;html=1;exitX=1;exitY=0;exitDx=0;exitDy=0;entryX=0.411;entryY=1.1;entryDx=0;entryDy=0;entryPerimeter=0;endArrow=oval;endFill=0;" edge="1" parent="1" source="2BAsR_BSLu4NLGfuRWQs-1" target="Tgz7Qvu2k7bWYLfT2SAW-90">
          <mxGeometry relative="1" as="geometry" />
        </mxCell>
        <mxCell id="2BAsR_BSLu4NLGfuRWQs-11" style="rounded=0;orthogonalLoop=1;jettySize=auto;html=1;endArrow=none;startFill=0;startArrow=oval;" edge="1" parent="1" source="2BAsR_BSLu4NLGfuRWQs-10" target="NNg-buT7qz7WShZYyG6_-1">
          <mxGeometry relative="1" as="geometry" />
        </mxCell>
        <mxCell id="2BAsR_BSLu4NLGfuRWQs-10" value="annio_implantacion" style="text;html=1;align=center;verticalAlign=middle;resizable=0;points=[];autosize=1;strokeColor=none;fillColor=none;" vertex="1" parent="1">
          <mxGeometry x="236.5" y="-450" width="130" height="30" as="geometry" />
        </mxCell>
        <mxCell id="Tgz7Qvu2k7bWYLfT2SAW-105" value="id" style="text;html=1;align=center;verticalAlign=middle;resizable=0;points=[];autosize=1;strokeColor=none;fillColor=none;" vertex="1" parent="1">
          <mxGeometry x="689.5" y="-249.5" width="30" height="30" as="geometry" />
        </mxCell>
        <mxCell id="Tgz7Qvu2k7bWYLfT2SAW-106" value="nombre" style="text;html=1;align=center;verticalAlign=middle;resizable=0;points=[];autosize=1;strokeColor=none;fillColor=none;" vertex="1" parent="1">
          <mxGeometry x="719.5" y="-250" width="60" height="30" as="geometry" />
        </mxCell>
        <mxCell id="Tgz7Qvu2k7bWYLfT2SAW-107" value="cif" style="text;html=1;align=center;verticalAlign=middle;resizable=0;points=[];autosize=1;strokeColor=none;fillColor=none;" vertex="1" parent="1">
          <mxGeometry x="769.5" y="-250" width="40" height="30" as="geometry" />
        </mxCell>
        <mxCell id="Tgz7Qvu2k7bWYLfT2SAW-108" value="email" style="text;html=1;align=center;verticalAlign=middle;resizable=0;points=[];autosize=1;strokeColor=none;fillColor=none;" vertex="1" parent="1">
          <mxGeometry x="795.5" y="-250" width="50" height="30" as="geometry" />
        </mxCell>
        <mxCell id="Tgz7Qvu2k7bWYLfT2SAW-109" value="telefono" style="text;html=1;align=center;verticalAlign=middle;resizable=0;points=[];autosize=1;strokeColor=none;fillColor=none;" vertex="1" parent="1">
          <mxGeometry x="833.5" y="-250" width="70" height="30" as="geometry" />
        </mxCell>
        <mxCell id="Tgz7Qvu2k7bWYLfT2SAW-110" value="direccion" style="text;html=1;align=center;verticalAlign=middle;resizable=0;points=[];autosize=1;strokeColor=none;fillColor=none;" vertex="1" parent="1">
          <mxGeometry x="900" y="-250" width="70" height="30" as="geometry" />
        </mxCell>
        <mxCell id="Tgz7Qvu2k7bWYLfT2SAW-116" style="rounded=0;orthogonalLoop=1;jettySize=auto;html=1;exitX=1;exitY=0;exitDx=0;exitDy=0;entryX=0.532;entryY=1.075;entryDx=0;entryDy=0;entryPerimeter=0;endArrow=oval;endFill=0;" edge="1" parent="1" source="kP8dAD_jrm5b0dCdeW7q-5">
          <mxGeometry relative="1" as="geometry">
            <mxPoint x="926.7399999999998" y="-217.75" as="targetPoint" />
          </mxGeometry>
        </mxCell>
        <mxCell id="Tgz7Qvu2k7bWYLfT2SAW-112" style="rounded=0;orthogonalLoop=1;jettySize=auto;html=1;exitX=0.25;exitY=0;exitDx=0;exitDy=0;entryX=0.704;entryY=0.867;entryDx=0;entryDy=0;entryPerimeter=0;endArrow=oval;endFill=0;" edge="1" parent="1" source="kP8dAD_jrm5b0dCdeW7q-5" target="Tgz7Qvu2k7bWYLfT2SAW-106">
          <mxGeometry relative="1" as="geometry" />
        </mxCell>
        <mxCell id="Tgz7Qvu2k7bWYLfT2SAW-115" style="rounded=0;orthogonalLoop=1;jettySize=auto;html=1;exitX=0.862;exitY=-0.025;exitDx=0;exitDy=0;entryX=0.582;entryY=0.908;entryDx=0;entryDy=0;entryPerimeter=0;endArrow=oval;endFill=0;exitPerimeter=0;" edge="1" parent="1" source="kP8dAD_jrm5b0dCdeW7q-5" target="Tgz7Qvu2k7bWYLfT2SAW-109">
          <mxGeometry relative="1" as="geometry" />
        </mxCell>
        <mxCell id="Tgz7Qvu2k7bWYLfT2SAW-118" value="id" style="text;html=1;align=center;verticalAlign=middle;resizable=0;points=[];autosize=1;strokeColor=none;fillColor=none;" vertex="1" parent="1">
          <mxGeometry x="909" y="140" width="30" height="30" as="geometry" />
        </mxCell>
        <mxCell id="Tgz7Qvu2k7bWYLfT2SAW-119" value="localidad" style="text;html=1;align=center;verticalAlign=middle;resizable=0;points=[];autosize=1;strokeColor=none;fillColor=none;" vertex="1" parent="1">
          <mxGeometry x="939" y="154" width="70" height="30" as="geometry" />
        </mxCell>
        <mxCell id="Tgz7Qvu2k7bWYLfT2SAW-120" value="direccion" style="text;html=1;align=center;verticalAlign=middle;resizable=0;points=[];autosize=1;strokeColor=none;fillColor=none;" vertex="1" parent="1">
          <mxGeometry x="970" y="180" width="70" height="30" as="geometry" />
        </mxCell>
        <mxCell id="8JAtajd1r-GjUV28Kf3z-1" style="rounded=0;orthogonalLoop=1;jettySize=auto;html=1;exitX=1;exitY=0.5;exitDx=0;exitDy=0;endArrow=oval;endFill=0;entryX=0.4;entryY=0.967;entryDx=0;entryDy=0;entryPerimeter=0;" edge="1" parent="1" source="kP8dAD_jrm5b0dCdeW7q-26" target="Tgz7Qvu2k7bWYLfT2SAW-119">
          <mxGeometry relative="1" as="geometry">
            <mxPoint x="950" y="190" as="targetPoint" />
          </mxGeometry>
        </mxCell>
        <mxCell id="8JAtajd1r-GjUV28Kf3z-2" style="rounded=0;orthogonalLoop=1;jettySize=auto;html=1;exitX=1;exitY=1;exitDx=0;exitDy=0;endArrow=oval;endFill=0;entryX=0.257;entryY=1.033;entryDx=0;entryDy=0;entryPerimeter=0;" edge="1" parent="1" source="kP8dAD_jrm5b0dCdeW7q-26" target="Tgz7Qvu2k7bWYLfT2SAW-120">
          <mxGeometry relative="1" as="geometry">
            <mxPoint x="940" y="240" as="targetPoint" />
          </mxGeometry>
        </mxCell>
        <mxCell id="8JAtajd1r-GjUV28Kf3z-20" value="id" style="text;html=1;align=center;verticalAlign=middle;resizable=0;points=[];autosize=1;strokeColor=none;fillColor=none;" vertex="1" parent="1">
          <mxGeometry x="406.5" y="948" width="30" height="30" as="geometry" />
        </mxCell>
        <mxCell id="8JAtajd1r-GjUV28Kf3z-21" value="fecha_firma" style="text;html=1;align=center;verticalAlign=middle;resizable=0;points=[];autosize=1;strokeColor=none;fillColor=none;" vertex="1" parent="1">
          <mxGeometry x="426.5" y="948" width="90" height="30" as="geometry" />
        </mxCell>
        <mxCell id="8JAtajd1r-GjUV28Kf3z-36" style="edgeStyle=orthogonalEdgeStyle;rounded=0;orthogonalLoop=1;jettySize=auto;html=1;entryX=0.5;entryY=0;entryDx=0;entryDy=0;" edge="1" parent="1" source="8JAtajd1r-GjUV28Kf3z-32" target="kP8dAD_jrm5b0dCdeW7q-26">
          <mxGeometry relative="1" as="geometry" />
        </mxCell>
        <mxCell id="8JAtajd1r-GjUV28Kf3z-32" value="tiene" style="rhombus;whiteSpace=wrap;html=1;" vertex="1" parent="1">
          <mxGeometry x="784" y="-55" width="80" height="80" as="geometry" />
        </mxCell>
        <mxCell id="8JAtajd1r-GjUV28Kf3z-40" style="edgeStyle=orthogonalEdgeStyle;rounded=0;orthogonalLoop=1;jettySize=auto;html=1;exitX=0.5;exitY=0;exitDx=0;exitDy=0;entryX=0.5;entryY=1;entryDx=0;entryDy=0;endArrow=none;startFill=0;" edge="1" parent="1" source="8JAtajd1r-GjUV28Kf3z-39" target="kP8dAD_jrm5b0dCdeW7q-26">
          <mxGeometry relative="1" as="geometry" />
        </mxCell>
        <mxCell id="eBRN4WL1ZEEqgl-zLK-s-32" style="edgeStyle=orthogonalEdgeStyle;rounded=0;orthogonalLoop=1;jettySize=auto;html=1;entryX=1;entryY=0.5;entryDx=0;entryDy=0;" edge="1" parent="1" source="8JAtajd1r-GjUV28Kf3z-39" target="kP8dAD_jrm5b0dCdeW7q-3">
          <mxGeometry relative="1" as="geometry">
            <Array as="points">
              <mxPoint x="825" y="595" />
            </Array>
          </mxGeometry>
        </mxCell>
        <mxCell id="8JAtajd1r-GjUV28Kf3z-39" value="tiene" style="rhombus;whiteSpace=wrap;html=1;" vertex="1" parent="1">
          <mxGeometry x="784" y="345" width="80" height="80" as="geometry" />
        </mxCell>
        <mxCell id="i2WU7JlJFQg8zrvrk9Qy-58" style="rounded=0;orthogonalLoop=1;jettySize=auto;html=1;exitX=0;exitY=0;exitDx=0;exitDy=0;endArrow=oval;endFill=0;startFill=0;" edge="1" parent="1" source="8JAtajd1r-GjUV28Kf3z-41" target="i2WU7JlJFQg8zrvrk9Qy-44">
          <mxGeometry relative="1" as="geometry" />
        </mxCell>
        <mxCell id="i2WU7JlJFQg8zrvrk9Qy-59" style="rounded=0;orthogonalLoop=1;jettySize=auto;html=1;endArrow=oval;endFill=0;" edge="1" parent="1" source="8JAtajd1r-GjUV28Kf3z-41" target="i2WU7JlJFQg8zrvrk9Qy-52">
          <mxGeometry relative="1" as="geometry" />
        </mxCell>
        <mxCell id="i2WU7JlJFQg8zrvrk9Qy-60" style="rounded=0;orthogonalLoop=1;jettySize=auto;html=1;exitX=0;exitY=0.75;exitDx=0;exitDy=0;endArrow=oval;endFill=0;" edge="1" parent="1" source="8JAtajd1r-GjUV28Kf3z-41" target="i2WU7JlJFQg8zrvrk9Qy-53">
          <mxGeometry relative="1" as="geometry" />
        </mxCell>
        <mxCell id="8JAtajd1r-GjUV28Kf3z-41" value="JORNADA" style="whiteSpace=wrap;html=1;" vertex="1" parent="1">
          <mxGeometry x="640" y="865" width="120" height="60" as="geometry" />
        </mxCell>
        <mxCell id="eBRN4WL1ZEEqgl-zLK-s-31" style="edgeStyle=orthogonalEdgeStyle;rounded=0;orthogonalLoop=1;jettySize=auto;html=1;exitX=0.5;exitY=1;exitDx=0;exitDy=0;entryX=0.5;entryY=0;entryDx=0;entryDy=0;" edge="1" parent="1" source="i2WU7JlJFQg8zrvrk9Qy-5" target="8JAtajd1r-GjUV28Kf3z-41">
          <mxGeometry relative="1" as="geometry" />
        </mxCell>
        <mxCell id="i2WU7JlJFQg8zrvrk9Qy-5" value="tiene" style="rhombus;whiteSpace=wrap;html=1;" vertex="1" parent="1">
          <mxGeometry x="660" y="690" width="80" height="80" as="geometry" />
        </mxCell>
        <mxCell id="i2WU7JlJFQg8zrvrk9Qy-22" value="id" style="text;html=1;align=center;verticalAlign=middle;resizable=0;points=[];autosize=1;strokeColor=none;fillColor=none;" vertex="1" parent="1">
          <mxGeometry x="653.5" y="-509" width="30" height="30" as="geometry" />
        </mxCell>
        <mxCell id="i2WU7JlJFQg8zrvrk9Qy-23" value="nota" style="text;html=1;align=center;verticalAlign=middle;resizable=0;points=[];autosize=1;strokeColor=none;fillColor=none;" vertex="1" parent="1">
          <mxGeometry x="764.5" y="-509" width="50" height="30" as="geometry" />
        </mxCell>
        <mxCell id="i2WU7JlJFQg8zrvrk9Qy-25" value="comentario" style="text;html=1;align=center;verticalAlign=middle;resizable=0;points=[];autosize=1;strokeColor=none;fillColor=none;" vertex="1" parent="1">
          <mxGeometry x="684.5" y="-509" width="80" height="30" as="geometry" />
        </mxCell>
        <mxCell id="i2WU7JlJFQg8zrvrk9Qy-26" style="rounded=0;orthogonalLoop=1;jettySize=auto;html=1;exitX=0.25;exitY=0;exitDx=0;exitDy=0;entryX=0.438;entryY=1;entryDx=0;entryDy=0;entryPerimeter=0;endArrow=oval;endFill=1;" edge="1" parent="1" source="kP8dAD_jrm5b0dCdeW7q-4" target="i2WU7JlJFQg8zrvrk9Qy-22">
          <mxGeometry relative="1" as="geometry" />
        </mxCell>
        <mxCell id="i2WU7JlJFQg8zrvrk9Qy-27" style="rounded=0;orthogonalLoop=1;jettySize=auto;html=1;exitX=0.5;exitY=0;exitDx=0;exitDy=0;entryX=0.33;entryY=0.952;entryDx=0;entryDy=0;entryPerimeter=0;endArrow=oval;endFill=0;" edge="1" parent="1" source="kP8dAD_jrm5b0dCdeW7q-4" target="i2WU7JlJFQg8zrvrk9Qy-25">
          <mxGeometry relative="1" as="geometry" />
        </mxCell>
        <mxCell id="i2WU7JlJFQg8zrvrk9Qy-29" style="rounded=0;orthogonalLoop=1;jettySize=auto;html=1;exitX=0.75;exitY=0;exitDx=0;exitDy=0;entryX=0.271;entryY=0.857;entryDx=0;entryDy=0;entryPerimeter=0;endArrow=oval;endFill=0;" edge="1" parent="1" source="kP8dAD_jrm5b0dCdeW7q-4" target="i2WU7JlJFQg8zrvrk9Qy-23">
          <mxGeometry relative="1" as="geometry" />
        </mxCell>
        <mxCell id="jyFi_7OY-xpQh8csej5u-13" value="realiza" style="rhombus;whiteSpace=wrap;html=1;" vertex="1" parent="1">
          <mxGeometry x="1229" y="-200" width="80" height="80" as="geometry" />
        </mxCell>
        <mxCell id="eBRN4WL1ZEEqgl-zLK-s-73" style="edgeStyle=orthogonalEdgeStyle;rounded=0;orthogonalLoop=1;jettySize=auto;html=1;entryX=0.75;entryY=0;entryDx=0;entryDy=0;" edge="1" parent="1" source="i2WU7JlJFQg8zrvrk9Qy-40" target="DT7l3WgkB1Yh6jrNEn3l-12">
          <mxGeometry relative="1" as="geometry">
            <Array as="points">
              <mxPoint x="704" y="440" />
              <mxPoint x="370" y="440" />
            </Array>
          </mxGeometry>
        </mxCell>
        <mxCell id="i2WU7JlJFQg8zrvrk9Qy-40" value="recibe" style="rhombus;whiteSpace=wrap;html=1;" vertex="1" parent="1">
          <mxGeometry x="664.5" y="-55" width="80" height="80" as="geometry" />
        </mxCell>
        <mxCell id="eBRN4WL1ZEEqgl-zLK-s-11" style="edgeStyle=orthogonalEdgeStyle;rounded=0;orthogonalLoop=1;jettySize=auto;html=1;entryX=0;entryY=0.5;entryDx=0;entryDy=0;" edge="1" parent="1" source="jyFi_7OY-xpQh8csej5u-16" target="kP8dAD_jrm5b0dCdeW7q-2">
          <mxGeometry relative="1" as="geometry" />
        </mxCell>
        <mxCell id="jyFi_7OY-xpQh8csej5u-16" value="contiene" style="rhombus;whiteSpace=wrap;html=1;" vertex="1" parent="1">
          <mxGeometry x="844" y="-469" width="80" height="80" as="geometry" />
        </mxCell>
        <mxCell id="i2WU7JlJFQg8zrvrk9Qy-44" value="fecha" style="text;html=1;align=center;verticalAlign=middle;resizable=0;points=[];autosize=1;strokeColor=none;fillColor=none;" vertex="1" parent="1">
          <mxGeometry x="545" y="820" width="50" height="30" as="geometry" />
        </mxCell>
        <mxCell id="i2WU7JlJFQg8zrvrk9Qy-52" value="hora_inicio" style="text;html=1;align=center;verticalAlign=middle;resizable=0;points=[];autosize=1;strokeColor=none;fillColor=none;" vertex="1" parent="1">
          <mxGeometry x="510" y="850" width="80" height="30" as="geometry" />
        </mxCell>
        <mxCell id="i2WU7JlJFQg8zrvrk9Qy-53" value="hora_fin" style="text;html=1;align=center;verticalAlign=middle;resizable=0;points=[];autosize=1;strokeColor=none;fillColor=none;" vertex="1" parent="1">
          <mxGeometry x="525" y="880" width="70" height="30" as="geometry" />
        </mxCell>
        <mxCell id="DT7l3WgkB1Yh6jrNEn3l-8" style="edgeStyle=none;curved=1;rounded=0;orthogonalLoop=1;jettySize=auto;html=1;exitX=0;exitY=0.5;exitDx=0;exitDy=0;entryX=1;entryY=0.5;entryDx=0;entryDy=0;fontSize=12;startSize=8;endSize=8;endArrow=none;startFill=1;endFill=1;startArrow=classic;" edge="1" parent="1" target="Sr4rl6shOZHGytkri_ff-2">
          <mxGeometry relative="1" as="geometry">
            <mxPoint x="1402" y="-427.9999999999998" as="sourcePoint" />
          </mxGeometry>
        </mxCell>
        <mxCell id="C90hnJhmOTNESrinXxfF-29" style="rounded=0;orthogonalLoop=1;jettySize=auto;html=1;exitX=0.5;exitY=0;exitDx=0;exitDy=0;endArrow=oval;endFill=1;" edge="1" parent="1" source="Sr4rl6shOZHGytkri_ff-1" target="C90hnJhmOTNESrinXxfF-27">
          <mxGeometry relative="1" as="geometry" />
        </mxCell>
        <mxCell id="DlG1HnqCE90eGpQktUZM-5" style="rounded=0;orthogonalLoop=1;jettySize=auto;html=1;endArrow=oval;endFill=0;" edge="1" parent="1" source="Sr4rl6shOZHGytkri_ff-1" target="DlG1HnqCE90eGpQktUZM-4">
          <mxGeometry relative="1" as="geometry" />
        </mxCell>
        <mxCell id="Sr4rl6shOZHGytkri_ff-1" value="COMPETENCIA" style="rounded=0;whiteSpace=wrap;html=1;" vertex="1" parent="1">
          <mxGeometry x="1402" y="-458" width="120" height="60" as="geometry" />
        </mxCell>
        <mxCell id="eBRN4WL1ZEEqgl-zLK-s-14" style="edgeStyle=orthogonalEdgeStyle;rounded=0;orthogonalLoop=1;jettySize=auto;html=1;entryX=1;entryY=0.5;entryDx=0;entryDy=0;startArrow=none;startFill=0;endArrow=none;" edge="1" parent="1" source="Sr4rl6shOZHGytkri_ff-2" target="kP8dAD_jrm5b0dCdeW7q-2">
          <mxGeometry relative="1" as="geometry" />
        </mxCell>
        <mxCell id="Sr4rl6shOZHGytkri_ff-2" value="contiene" style="rhombus;whiteSpace=wrap;html=1;" vertex="1" parent="1">
          <mxGeometry x="1229" y="-469" width="80" height="80" as="geometry" />
        </mxCell>
        <mxCell id="eBRN4WL1ZEEqgl-zLK-s-27" style="edgeStyle=orthogonalEdgeStyle;rounded=0;orthogonalLoop=1;jettySize=auto;html=1;entryX=0.5;entryY=1;entryDx=0;entryDy=0;exitX=0.25;exitY=0;exitDx=0;exitDy=0;startArrow=classic;startFill=1;endArrow=none;" edge="1" parent="1" source="DT7l3WgkB1Yh6jrNEn3l-12" target="DT7l3WgkB1Yh6jrNEn3l-27">
          <mxGeometry relative="1" as="geometry">
            <Array as="points">
              <mxPoint x="310" y="370" />
            </Array>
          </mxGeometry>
        </mxCell>
        <mxCell id="DT7l3WgkB1Yh6jrNEn3l-12" value="PRACTICA" style="whiteSpace=wrap;html=1;" vertex="1" parent="1">
          <mxGeometry x="280" y="565" width="120" height="60" as="geometry" />
        </mxCell>
        <mxCell id="eBRN4WL1ZEEqgl-zLK-s-26" style="edgeStyle=orthogonalEdgeStyle;rounded=0;orthogonalLoop=1;jettySize=auto;html=1;entryX=0.5;entryY=1;entryDx=0;entryDy=0;" edge="1" parent="1" source="DT7l3WgkB1Yh6jrNEn3l-26" target="DT7l3WgkB1Yh6jrNEn3l-12">
          <mxGeometry relative="1" as="geometry" />
        </mxCell>
        <mxCell id="DT7l3WgkB1Yh6jrNEn3l-26" value="compone" style="rhombus;whiteSpace=wrap;html=1;" vertex="1" parent="1">
          <mxGeometry x="300" y="740" width="80" height="80" as="geometry" />
        </mxCell>
        <mxCell id="DT7l3WgkB1Yh6jrNEn3l-27" value="realiza" style="rhombus;whiteSpace=wrap;html=1;" vertex="1" parent="1">
          <mxGeometry x="270" y="290" width="80" height="80" as="geometry" />
        </mxCell>
        <mxCell id="eBRN4WL1ZEEqgl-zLK-s-29" style="edgeStyle=orthogonalEdgeStyle;rounded=0;orthogonalLoop=1;jettySize=auto;html=1;exitX=0;exitY=0.5;exitDx=0;exitDy=0;entryX=1;entryY=0.5;entryDx=0;entryDy=0;" edge="1" parent="1" source="DT7l3WgkB1Yh6jrNEn3l-28" target="DT7l3WgkB1Yh6jrNEn3l-12">
          <mxGeometry relative="1" as="geometry" />
        </mxCell>
        <mxCell id="DT7l3WgkB1Yh6jrNEn3l-28" value="compone" style="rhombus;whiteSpace=wrap;html=1;" vertex="1" parent="1">
          <mxGeometry x="482.5" y="555" width="80" height="80" as="geometry" />
        </mxCell>
        <mxCell id="eBRN4WL1ZEEqgl-zLK-s-57" style="edgeStyle=orthogonalEdgeStyle;rounded=0;orthogonalLoop=1;jettySize=auto;html=1;exitX=0.5;exitY=0;exitDx=0;exitDy=0;entryX=0.5;entryY=1;entryDx=0;entryDy=0;endArrow=none;startFill=0;" edge="1" parent="1" source="DT7l3WgkB1Yh6jrNEn3l-30" target="kP8dAD_jrm5b0dCdeW7q-11">
          <mxGeometry relative="1" as="geometry" />
        </mxCell>
        <mxCell id="DT7l3WgkB1Yh6jrNEn3l-30" value="fima" style="rhombus;whiteSpace=wrap;html=1;" vertex="1" parent="1">
          <mxGeometry x="-10" y="740" width="80" height="80" as="geometry" />
        </mxCell>
        <mxCell id="eBRN4WL1ZEEqgl-zLK-s-33" value="id" style="text;html=1;align=center;verticalAlign=middle;resizable=0;points=[];autosize=1;strokeColor=none;fillColor=none;" vertex="1" parent="1">
          <mxGeometry x="-187" y="-340" width="30" height="30" as="geometry" />
        </mxCell>
        <mxCell id="eBRN4WL1ZEEqgl-zLK-s-34" value="nombre" style="text;html=1;align=center;verticalAlign=middle;resizable=0;points=[];autosize=1;strokeColor=none;fillColor=none;" vertex="1" parent="1">
          <mxGeometry x="-147" y="-340" width="60" height="30" as="geometry" />
        </mxCell>
        <mxCell id="eBRN4WL1ZEEqgl-zLK-s-36" value="nivel" style="text;html=1;align=center;verticalAlign=middle;resizable=0;points=[];autosize=1;strokeColor=none;fillColor=none;" vertex="1" parent="1">
          <mxGeometry x="-87" y="-340" width="50" height="30" as="geometry" />
        </mxCell>
        <mxCell id="eBRN4WL1ZEEqgl-zLK-s-37" style="rounded=0;orthogonalLoop=1;jettySize=auto;html=1;exitX=0.25;exitY=0;exitDx=0;exitDy=0;entryX=0.376;entryY=0.99;entryDx=0;entryDy=0;entryPerimeter=0;endArrow=oval;endFill=1;" edge="1" parent="1" source="kP8dAD_jrm5b0dCdeW7q-7" target="eBRN4WL1ZEEqgl-zLK-s-33">
          <mxGeometry relative="1" as="geometry" />
        </mxCell>
        <mxCell id="eBRN4WL1ZEEqgl-zLK-s-38" style="rounded=0;orthogonalLoop=1;jettySize=auto;html=1;exitX=0.5;exitY=0;exitDx=0;exitDy=0;entryX=0.474;entryY=1.086;entryDx=0;entryDy=0;entryPerimeter=0;endArrow=oval;endFill=0;" edge="1" parent="1" source="kP8dAD_jrm5b0dCdeW7q-7" target="eBRN4WL1ZEEqgl-zLK-s-34">
          <mxGeometry relative="1" as="geometry" />
        </mxCell>
        <mxCell id="eBRN4WL1ZEEqgl-zLK-s-39" style="rounded=0;orthogonalLoop=1;jettySize=auto;html=1;exitX=0.75;exitY=0;exitDx=0;exitDy=0;entryX=0.431;entryY=1.038;entryDx=0;entryDy=0;entryPerimeter=0;endArrow=oval;endFill=0;" edge="1" parent="1" source="kP8dAD_jrm5b0dCdeW7q-7" target="eBRN4WL1ZEEqgl-zLK-s-36">
          <mxGeometry relative="1" as="geometry" />
        </mxCell>
        <mxCell id="eBRN4WL1ZEEqgl-zLK-s-40" value="id" style="text;html=1;align=center;verticalAlign=middle;resizable=0;points=[];autosize=1;strokeColor=none;fillColor=none;" vertex="1" parent="1">
          <mxGeometry x="286.5" y="-150" width="30" height="30" as="geometry" />
        </mxCell>
        <mxCell id="eBRN4WL1ZEEqgl-zLK-s-41" value="nombre" style="text;html=1;align=center;verticalAlign=middle;resizable=0;points=[];autosize=1;strokeColor=none;fillColor=none;" vertex="1" parent="1">
          <mxGeometry x="256.5" y="-120" width="60" height="30" as="geometry" />
        </mxCell>
        <mxCell id="eBRN4WL1ZEEqgl-zLK-s-42" value="annio_academico" style="text;html=1;align=center;verticalAlign=middle;resizable=0;points=[];autosize=1;strokeColor=none;fillColor=none;" vertex="1" parent="1">
          <mxGeometry x="201.5" y="-90" width="120" height="30" as="geometry" />
        </mxCell>
        <mxCell id="eBRN4WL1ZEEqgl-zLK-s-43" style="rounded=0;orthogonalLoop=1;jettySize=auto;html=1;exitX=0;exitY=0.25;exitDx=0;exitDy=0;entryX=0.995;entryY=0.529;entryDx=0;entryDy=0;entryPerimeter=0;endArrow=oval;endFill=1;" edge="1" parent="1" source="kP8dAD_jrm5b0dCdeW7q-8" target="eBRN4WL1ZEEqgl-zLK-s-40">
          <mxGeometry relative="1" as="geometry" />
        </mxCell>
        <mxCell id="eBRN4WL1ZEEqgl-zLK-s-44" style="rounded=0;orthogonalLoop=1;jettySize=auto;html=1;exitX=0;exitY=0.5;exitDx=0;exitDy=0;entryX=1.008;entryY=0.5;entryDx=0;entryDy=0;entryPerimeter=0;endArrow=oval;endFill=0;" edge="1" parent="1" source="kP8dAD_jrm5b0dCdeW7q-8" target="eBRN4WL1ZEEqgl-zLK-s-41">
          <mxGeometry relative="1" as="geometry" />
        </mxCell>
        <mxCell id="eBRN4WL1ZEEqgl-zLK-s-46" style="rounded=0;orthogonalLoop=1;jettySize=auto;html=1;exitX=0;exitY=0.75;exitDx=0;exitDy=0;entryX=1.025;entryY=0.557;entryDx=0;entryDy=0;entryPerimeter=0;endArrow=oval;endFill=0;" edge="1" parent="1" source="kP8dAD_jrm5b0dCdeW7q-8" target="eBRN4WL1ZEEqgl-zLK-s-42">
          <mxGeometry relative="1" as="geometry" />
        </mxCell>
        <mxCell id="eBRN4WL1ZEEqgl-zLK-s-65" value="fecha_inicio" style="text;html=1;align=center;verticalAlign=middle;resizable=0;points=[];autosize=1;strokeColor=none;fillColor=none;" vertex="1" parent="1">
          <mxGeometry x="650" y="490" width="90" height="30" as="geometry" />
        </mxCell>
        <mxCell id="eBRN4WL1ZEEqgl-zLK-s-66" value="fecha_fin" style="text;html=1;align=center;verticalAlign=middle;resizable=0;points=[];autosize=1;strokeColor=none;fillColor=none;" vertex="1" parent="1">
          <mxGeometry x="727.5" y="490" width="70" height="30" as="geometry" />
        </mxCell>
        <mxCell id="eBRN4WL1ZEEqgl-zLK-s-67" style="rounded=0;orthogonalLoop=1;jettySize=auto;html=1;exitX=0.5;exitY=0;exitDx=0;exitDy=0;endArrow=oval;endFill=0;" edge="1" parent="1" source="kP8dAD_jrm5b0dCdeW7q-3" target="eBRN4WL1ZEEqgl-zLK-s-65">
          <mxGeometry relative="1" as="geometry" />
        </mxCell>
        <mxCell id="eBRN4WL1ZEEqgl-zLK-s-69" value="id" style="text;html=1;align=center;verticalAlign=middle;resizable=0;points=[];autosize=1;strokeColor=none;fillColor=none;" vertex="1" parent="1">
          <mxGeometry x="562.5" y="490" width="30" height="30" as="geometry" />
        </mxCell>
        <mxCell id="eBRN4WL1ZEEqgl-zLK-s-71" style="rounded=0;orthogonalLoop=1;jettySize=auto;html=1;exitX=0;exitY=0;exitDx=0;exitDy=0;entryX=0.779;entryY=0.986;entryDx=0;entryDy=0;entryPerimeter=0;endArrow=oval;endFill=1;" edge="1" parent="1" source="kP8dAD_jrm5b0dCdeW7q-3" target="eBRN4WL1ZEEqgl-zLK-s-69">
          <mxGeometry relative="1" as="geometry" />
        </mxCell>
        <mxCell id="VHoaW_7UEEQLHa_jej99-2" style="edgeStyle=orthogonalEdgeStyle;rounded=0;orthogonalLoop=1;jettySize=auto;html=1;entryX=0;entryY=0.5;entryDx=0;entryDy=0;endArrow=none;startFill=0;" edge="1" parent="1" source="NNg-buT7qz7WShZYyG6_-1" target="Tgz7Qvu2k7bWYLfT2SAW-31">
          <mxGeometry relative="1" as="geometry" />
        </mxCell>
        <mxCell id="NNg-buT7qz7WShZYyG6_-1" value="OFERTA FORMATIVA" style="rounded=0;whiteSpace=wrap;html=1;" vertex="1" parent="1">
          <mxGeometry x="217.5" y="-390" width="120" height="60" as="geometry" />
        </mxCell>
        <mxCell id="NNg-buT7qz7WShZYyG6_-4" style="rounded=0;orthogonalLoop=1;jettySize=auto;html=1;endArrow=none;endFill=1;startArrow=oval;startFill=1;" edge="1" parent="1" source="NNg-buT7qz7WShZYyG6_-2" target="8JAtajd1r-GjUV28Kf3z-41">
          <mxGeometry relative="1" as="geometry" />
        </mxCell>
        <mxCell id="NNg-buT7qz7WShZYyG6_-2" value="id" style="text;html=1;align=center;verticalAlign=middle;resizable=0;points=[];autosize=1;strokeColor=none;fillColor=none;" vertex="1" parent="1">
          <mxGeometry x="573.5" y="795" width="30" height="30" as="geometry" />
        </mxCell>
        <mxCell id="VHoaW_7UEEQLHa_jej99-5" style="edgeStyle=orthogonalEdgeStyle;rounded=0;orthogonalLoop=1;jettySize=auto;html=1;entryX=0.5;entryY=1;entryDx=0;entryDy=0;" edge="1" parent="1" source="VHoaW_7UEEQLHa_jej99-3" target="NNg-buT7qz7WShZYyG6_-1">
          <mxGeometry relative="1" as="geometry" />
        </mxCell>
        <mxCell id="VHoaW_7UEEQLHa_jej99-3" value="ofrece" style="rhombus;whiteSpace=wrap;html=1;" vertex="1" parent="1">
          <mxGeometry x="49.5" y="-299.5" width="80" height="80" as="geometry" />
        </mxCell>
        <mxCell id="VHoaW_7UEEQLHa_jej99-6" value="&lt;b&gt;1:N&lt;/b&gt;" style="text;html=1;align=center;verticalAlign=middle;resizable=0;points=[];autosize=1;strokeColor=none;fillColor=none;" vertex="1" parent="1">
          <mxGeometry x="69.5" y="-520" width="40" height="30" as="geometry" />
        </mxCell>
        <mxCell id="VHoaW_7UEEQLHa_jej99-7" value="(0,1)" style="text;html=1;align=center;verticalAlign=middle;resizable=0;points=[];autosize=1;strokeColor=none;fillColor=none;" vertex="1" parent="1">
          <mxGeometry x="-50" y="-450" width="50" height="30" as="geometry" />
        </mxCell>
        <mxCell id="VHoaW_7UEEQLHa_jej99-9" value="(1,n)" style="text;html=1;align=center;verticalAlign=middle;resizable=0;points=[];autosize=1;strokeColor=none;fillColor=none;" vertex="1" parent="1">
          <mxGeometry x="167.5" y="-360" width="50" height="30" as="geometry" />
        </mxCell>
        <mxCell id="VHoaW_7UEEQLHa_jej99-10" value="(0,1)" style="text;html=1;align=center;verticalAlign=middle;resizable=0;points=[];autosize=1;strokeColor=none;fillColor=none;" vertex="1" parent="1">
          <mxGeometry x="-57" y="-289.5" width="50" height="30" as="geometry" />
        </mxCell>
        <mxCell id="VHoaW_7UEEQLHa_jej99-11" value="&lt;b&gt;1:N&lt;/b&gt;" style="text;html=1;align=center;verticalAlign=middle;resizable=0;points=[];autosize=1;strokeColor=none;fillColor=none;" vertex="1" parent="1">
          <mxGeometry x="70" y="-329.5" width="40" height="30" as="geometry" />
        </mxCell>
        <mxCell id="VHoaW_7UEEQLHa_jej99-12" value="(1,n)" style="text;html=1;align=center;verticalAlign=middle;resizable=0;points=[];autosize=1;strokeColor=none;fillColor=none;" vertex="1" parent="1">
          <mxGeometry x="227.5" y="-329.5" width="50" height="30" as="geometry" />
        </mxCell>
        <mxCell id="VHoaW_7UEEQLHa_jej99-13" value="(0,1)" style="text;html=1;align=center;verticalAlign=middle;resizable=0;points=[];autosize=1;strokeColor=none;fillColor=none;" vertex="1" parent="1">
          <mxGeometry x="337.5" y="-390" width="50" height="30" as="geometry" />
        </mxCell>
        <mxCell id="VHoaW_7UEEQLHa_jej99-15" value="&lt;b&gt;1:N&lt;/b&gt;" style="text;html=1;align=center;verticalAlign=middle;resizable=0;points=[];autosize=1;strokeColor=none;fillColor=none;" vertex="1" parent="1">
          <mxGeometry x="436.5" y="-430" width="40" height="30" as="geometry" />
        </mxCell>
        <mxCell id="VHoaW_7UEEQLHa_jej99-16" value="(1,n)" style="text;html=1;align=center;verticalAlign=middle;resizable=0;points=[];autosize=1;strokeColor=none;fillColor=none;" vertex="1" parent="1">
          <mxGeometry x="455" y="-160" width="50" height="30" as="geometry" />
        </mxCell>
        <mxCell id="VHoaW_7UEEQLHa_jej99-17" value="(1,n)" style="text;html=1;align=center;verticalAlign=middle;resizable=0;points=[];autosize=1;strokeColor=none;fillColor=none;" vertex="1" parent="1">
          <mxGeometry x="482.5" y="183" width="50" height="30" as="geometry" />
        </mxCell>
        <mxCell id="VHoaW_7UEEQLHa_jej99-18" value="(0,1)" style="text;html=1;align=center;verticalAlign=middle;resizable=0;points=[];autosize=1;strokeColor=none;fillColor=none;" vertex="1" parent="1">
          <mxGeometry x="455" y="-70" width="50" height="30" as="geometry" />
        </mxCell>
        <mxCell id="VHoaW_7UEEQLHa_jej99-19" value="&lt;b&gt;1:N&lt;/b&gt;" style="text;html=1;align=center;verticalAlign=middle;resizable=0;points=[];autosize=1;strokeColor=none;fillColor=none;" vertex="1" parent="1">
          <mxGeometry x="492.5" y="65" width="40" height="30" as="geometry" />
        </mxCell>
        <mxCell id="VHoaW_7UEEQLHa_jej99-20" value="(1,1)" style="text;html=1;align=center;verticalAlign=middle;resizable=0;points=[];autosize=1;strokeColor=none;fillColor=none;" vertex="1" parent="1">
          <mxGeometry x="592.5" y="243" width="50" height="30" as="geometry" />
        </mxCell>
        <mxCell id="VHoaW_7UEEQLHa_jej99-21" value="(0,1)" style="text;html=1;align=center;verticalAlign=middle;resizable=0;points=[];autosize=1;strokeColor=none;fillColor=none;" vertex="1" parent="1">
          <mxGeometry x="311.5" y="535" width="50" height="30" as="geometry" />
        </mxCell>
        <mxCell id="m432ThOipTGf6FL_4Vds-3" value="&lt;b&gt;1:1&lt;/b&gt;" style="text;html=1;align=center;verticalAlign=middle;resizable=0;points=[];autosize=1;strokeColor=none;fillColor=none;" vertex="1" parent="1">
          <mxGeometry x="350" y="315" width="40" height="30" as="geometry" />
        </mxCell>
        <mxCell id="m432ThOipTGf6FL_4Vds-4" value="(0,n)" style="text;html=1;align=center;verticalAlign=middle;resizable=0;points=[];autosize=1;strokeColor=none;fillColor=none;" vertex="1" parent="1">
          <mxGeometry x="230" y="1008" width="50" height="30" as="geometry" />
        </mxCell>
        <mxCell id="m432ThOipTGf6FL_4Vds-5" value="(1,1)" style="text;html=1;align=center;verticalAlign=middle;resizable=0;points=[];autosize=1;strokeColor=none;fillColor=none;" vertex="1" parent="1">
          <mxGeometry x="30" y="-90" width="50" height="30" as="geometry" />
        </mxCell>
        <mxCell id="m432ThOipTGf6FL_4Vds-6" value="(1,n)" style="text;html=1;align=center;verticalAlign=middle;resizable=0;points=[];autosize=1;strokeColor=none;fillColor=none;" vertex="1" parent="1">
          <mxGeometry x="699.5" y="835" width="50" height="30" as="geometry" />
        </mxCell>
        <mxCell id="m432ThOipTGf6FL_4Vds-7" value="(0,1)" style="text;html=1;align=center;verticalAlign=middle;resizable=0;points=[];autosize=1;strokeColor=none;fillColor=none;" vertex="1" parent="1">
          <mxGeometry x="699.5" y="625" width="50" height="30" as="geometry" />
        </mxCell>
        <mxCell id="m432ThOipTGf6FL_4Vds-8" value="&lt;b&gt;1:N&lt;/b&gt;" style="text;html=1;align=center;verticalAlign=middle;resizable=0;points=[];autosize=1;strokeColor=none;fillColor=none;" vertex="1" parent="1">
          <mxGeometry x="740" y="715" width="40" height="30" as="geometry" />
        </mxCell>
        <mxCell id="m432ThOipTGf6FL_4Vds-9" value="(0,n)" style="text;html=1;align=center;verticalAlign=middle;resizable=0;points=[];autosize=1;strokeColor=none;fillColor=none;" vertex="1" parent="1">
          <mxGeometry x="400" y="565" width="50" height="30" as="geometry" />
        </mxCell>
        <mxCell id="m432ThOipTGf6FL_4Vds-10" value="(1,1)" style="text;html=1;align=center;verticalAlign=middle;resizable=0;points=[];autosize=1;strokeColor=none;fillColor=none;" vertex="1" parent="1">
          <mxGeometry x="590" y="565" width="50" height="30" as="geometry" />
        </mxCell>
        <mxCell id="m432ThOipTGf6FL_4Vds-11" value="&lt;b&gt;1:N&lt;/b&gt;" style="text;html=1;align=center;verticalAlign=middle;resizable=0;points=[];autosize=1;strokeColor=none;fillColor=none;" vertex="1" parent="1">
          <mxGeometry x="502.5" y="525" width="40" height="30" as="geometry" />
        </mxCell>
        <mxCell id="m432ThOipTGf6FL_4Vds-13" value="&lt;b&gt;1:N&lt;/b&gt;" style="text;html=1;align=center;verticalAlign=middle;resizable=0;points=[];autosize=1;strokeColor=none;fillColor=none;" vertex="1" parent="1">
          <mxGeometry x="260" y="765" width="40" height="30" as="geometry" />
        </mxCell>
        <mxCell id="m432ThOipTGf6FL_4Vds-14" value="(0,1)" style="text;html=1;align=center;verticalAlign=middle;resizable=0;points=[];autosize=1;strokeColor=none;fillColor=none;" vertex="1" parent="1">
          <mxGeometry x="291.5" y="978" width="50" height="30" as="geometry" />
        </mxCell>
        <mxCell id="m432ThOipTGf6FL_4Vds-15" value="(1,n)" style="text;html=1;align=center;verticalAlign=middle;resizable=0;points=[];autosize=1;strokeColor=none;fillColor=none;" vertex="1" parent="1">
          <mxGeometry x="291.5" y="625" width="50" height="30" as="geometry" />
        </mxCell>
        <mxCell id="m432ThOipTGf6FL_4Vds-16" value="&lt;b&gt;1:N&lt;/b&gt;" style="text;html=1;align=center;verticalAlign=middle;resizable=0;points=[];autosize=1;strokeColor=none;fillColor=none;" vertex="1" parent="1">
          <mxGeometry x="70" y="765" width="40" height="30" as="geometry" />
        </mxCell>
        <mxCell id="C90hnJhmOTNESrinXxfF-1" value="(0,n)" style="text;html=1;align=center;verticalAlign=middle;resizable=0;points=[];autosize=1;strokeColor=none;fillColor=none;" vertex="1" parent="1">
          <mxGeometry x="416.5" y="1008" width="50" height="30" as="geometry" />
        </mxCell>
        <mxCell id="C90hnJhmOTNESrinXxfF-2" value="&lt;b&gt;1:N&lt;/b&gt;" style="text;html=1;align=center;verticalAlign=middle;resizable=0;points=[];autosize=1;strokeColor=none;fillColor=none;" vertex="1" parent="1">
          <mxGeometry x="1229" y="1023" width="40" height="30" as="geometry" />
        </mxCell>
        <mxCell id="C90hnJhmOTNESrinXxfF-3" value="(1,1)" style="text;html=1;align=center;verticalAlign=middle;resizable=0;points=[];autosize=1;strokeColor=none;fillColor=none;" vertex="1" parent="1">
          <mxGeometry x="1130" y="240" width="50" height="30" as="geometry" />
        </mxCell>
        <mxCell id="C90hnJhmOTNESrinXxfF-4" value="(1,1)" style="text;html=1;align=center;verticalAlign=middle;resizable=0;points=[];autosize=1;strokeColor=none;fillColor=none;" vertex="1" parent="1">
          <mxGeometry x="827" y="243" width="50" height="30" as="geometry" />
        </mxCell>
        <mxCell id="C90hnJhmOTNESrinXxfF-5" value="(0,1)" style="text;html=1;align=center;verticalAlign=middle;resizable=0;points=[];autosize=1;strokeColor=none;fillColor=none;" vertex="1" parent="1">
          <mxGeometry x="764" y="595" width="50" height="30" as="geometry" />
        </mxCell>
        <mxCell id="C90hnJhmOTNESrinXxfF-6" value="&lt;b&gt;1:1&lt;/b&gt;" style="text;html=1;align=center;verticalAlign=middle;resizable=0;points=[];autosize=1;strokeColor=none;fillColor=none;" vertex="1" parent="1">
          <mxGeometry x="864" y="370" width="40" height="30" as="geometry" />
        </mxCell>
        <mxCell id="C90hnJhmOTNESrinXxfF-7" value="(1,n)" style="text;html=1;align=center;verticalAlign=middle;resizable=0;points=[];autosize=1;strokeColor=none;fillColor=none;" vertex="1" parent="1">
          <mxGeometry x="827" y="155" width="50" height="30" as="geometry" />
        </mxCell>
        <mxCell id="C90hnJhmOTNESrinXxfF-8" value="(0,1)" style="text;html=1;align=center;verticalAlign=middle;resizable=0;points=[];autosize=1;strokeColor=none;fillColor=none;" vertex="1" parent="1">
          <mxGeometry x="827" y="-130" width="50" height="30" as="geometry" />
        </mxCell>
        <mxCell id="C90hnJhmOTNESrinXxfF-9" value="&lt;b&gt;1:N&lt;/b&gt;" style="text;html=1;align=center;verticalAlign=middle;resizable=0;points=[];autosize=1;strokeColor=none;fillColor=none;" vertex="1" parent="1">
          <mxGeometry x="864" y="-30" width="40" height="30" as="geometry" />
        </mxCell>
        <mxCell id="C90hnJhmOTNESrinXxfF-10" value="(0,1)" style="text;html=1;align=center;verticalAlign=middle;resizable=0;points=[];autosize=1;strokeColor=none;fillColor=none;" vertex="1" parent="1">
          <mxGeometry x="366.5" y="535" width="50" height="30" as="geometry" />
        </mxCell>
        <mxCell id="C90hnJhmOTNESrinXxfF-11" value="&lt;b&gt;1:1&lt;/b&gt;" style="text;html=1;align=center;verticalAlign=middle;resizable=0;points=[];autosize=1;strokeColor=none;fillColor=none;" vertex="1" parent="1">
          <mxGeometry x="624.5" y="-30" width="40" height="30" as="geometry" />
        </mxCell>
        <mxCell id="C90hnJhmOTNESrinXxfF-12" value="(1, 1)" style="text;html=1;align=center;verticalAlign=middle;resizable=0;points=[];autosize=1;strokeColor=none;fillColor=none;" vertex="1" parent="1">
          <mxGeometry x="603.5" y="-398" width="50" height="30" as="geometry" />
        </mxCell>
        <mxCell id="C90hnJhmOTNESrinXxfF-13" value="(1,n)" style="text;html=1;align=center;verticalAlign=middle;resizable=0;points=[];autosize=1;strokeColor=none;fillColor=none;" vertex="1" parent="1">
          <mxGeometry x="1150" y="150" width="50" height="30" as="geometry" />
        </mxCell>
        <mxCell id="C90hnJhmOTNESrinXxfF-14" value="&lt;b&gt;1:N&lt;/b&gt;" style="text;html=1;align=center;verticalAlign=middle;resizable=0;points=[];autosize=1;strokeColor=none;fillColor=none;" vertex="1" parent="1">
          <mxGeometry x="1130" y="-170" width="40" height="30" as="geometry" />
        </mxCell>
        <mxCell id="C90hnJhmOTNESrinXxfF-15" value="(0,1)" style="text;html=1;align=center;verticalAlign=middle;resizable=0;points=[];autosize=1;strokeColor=none;fillColor=none;" vertex="1" parent="1">
          <mxGeometry x="884.5" y="-190" width="50" height="30" as="geometry" />
        </mxCell>
        <mxCell id="C90hnJhmOTNESrinXxfF-18" value="(0, n)" style="text;html=1;align=center;verticalAlign=middle;resizable=0;points=[];autosize=1;strokeColor=none;fillColor=none;" vertex="1" parent="1">
          <mxGeometry x="714.5" y="-400" width="50" height="30" as="geometry" />
        </mxCell>
        <mxCell id="C90hnJhmOTNESrinXxfF-19" value="&lt;b&gt;1:N&lt;/b&gt;" style="text;html=1;align=center;verticalAlign=middle;resizable=0;points=[];autosize=1;strokeColor=none;fillColor=none;" vertex="1" parent="1">
          <mxGeometry x="1309" y="-175" width="40" height="30" as="geometry" />
        </mxCell>
        <mxCell id="C90hnJhmOTNESrinXxfF-20" value="(1, 1)" style="text;html=1;align=center;verticalAlign=middle;resizable=0;points=[];autosize=1;strokeColor=none;fillColor=none;" vertex="1" parent="1">
          <mxGeometry x="1210" y="150" width="50" height="30" as="geometry" />
        </mxCell>
        <mxCell id="C90hnJhmOTNESrinXxfF-21" value="(0, n)" style="text;html=1;align=center;verticalAlign=middle;resizable=0;points=[];autosize=1;strokeColor=none;fillColor=none;" vertex="1" parent="1">
          <mxGeometry x="968" y="-460" width="50" height="30" as="geometry" />
        </mxCell>
        <mxCell id="C90hnJhmOTNESrinXxfF-22" value="&lt;b&gt;1:N&lt;/b&gt;" style="text;html=1;align=center;verticalAlign=middle;resizable=0;points=[];autosize=1;strokeColor=none;fillColor=none;" vertex="1" parent="1">
          <mxGeometry x="864" y="-499" width="40" height="30" as="geometry" />
        </mxCell>
        <mxCell id="C90hnJhmOTNESrinXxfF-23" value="(1, 1)" style="text;html=1;align=center;verticalAlign=middle;resizable=0;points=[];autosize=1;strokeColor=none;fillColor=none;" vertex="1" parent="1">
          <mxGeometry x="745.5" y="-458" width="50" height="30" as="geometry" />
        </mxCell>
        <mxCell id="DlG1HnqCE90eGpQktUZM-1" value="&lt;b&gt;1:N&lt;/b&gt;" style="text;html=1;align=center;verticalAlign=middle;resizable=0;points=[];autosize=1;strokeColor=none;fillColor=none;" vertex="1" parent="1">
          <mxGeometry x="1249" y="-499" width="40" height="30" as="geometry" />
        </mxCell>
        <mxCell id="C90hnJhmOTNESrinXxfF-24" value="(0, n)" style="text;html=1;align=center;verticalAlign=middle;resizable=0;points=[];autosize=1;strokeColor=none;fillColor=none;" vertex="1" parent="1">
          <mxGeometry x="1352" y="-458" width="50" height="30" as="geometry" />
        </mxCell>
        <mxCell id="C90hnJhmOTNESrinXxfF-25" value="(1, 1)" style="text;html=1;align=center;verticalAlign=middle;resizable=0;points=[];autosize=1;strokeColor=none;fillColor=none;" vertex="1" parent="1">
          <mxGeometry x="1138" y="-460" width="50" height="30" as="geometry" />
        </mxCell>
        <mxCell id="C90hnJhmOTNESrinXxfF-27" value="id" style="text;html=1;align=center;verticalAlign=middle;resizable=0;points=[];autosize=1;strokeColor=none;fillColor=none;" vertex="1" parent="1">
          <mxGeometry x="1402" y="-509" width="30" height="30" as="geometry" />
        </mxCell>
        <mxCell id="C90hnJhmOTNESrinXxfF-26" value="id" style="text;html=1;align=center;verticalAlign=middle;resizable=0;points=[];autosize=1;strokeColor=none;fillColor=none;" vertex="1" parent="1">
          <mxGeometry x="1000" y="-510" width="30" height="30" as="geometry" />
        </mxCell>
        <mxCell id="C90hnJhmOTNESrinXxfF-28" style="rounded=0;orthogonalLoop=1;jettySize=auto;html=1;exitX=0.25;exitY=0;exitDx=0;exitDy=0;entryX=0.696;entryY=0.959;entryDx=0;entryDy=0;entryPerimeter=0;endArrow=oval;endFill=1;" edge="1" parent="1" source="kP8dAD_jrm5b0dCdeW7q-2" target="C90hnJhmOTNESrinXxfF-26">
          <mxGeometry relative="1" as="geometry" />
        </mxCell>
        <mxCell id="C90hnJhmOTNESrinXxfF-30" value="nota" style="text;html=1;align=center;verticalAlign=middle;resizable=0;points=[];autosize=1;strokeColor=none;fillColor=none;" vertex="1" parent="1">
          <mxGeometry x="1100" y="-509" width="50" height="30" as="geometry" />
        </mxCell>
        <mxCell id="DlG1HnqCE90eGpQktUZM-4" value="nota" style="text;html=1;align=center;verticalAlign=middle;resizable=0;points=[];autosize=1;strokeColor=none;fillColor=none;" vertex="1" parent="1">
          <mxGeometry x="1500" y="-509" width="50" height="30" as="geometry" />
        </mxCell>
        <mxCell id="C90hnJhmOTNESrinXxfF-33" value="dia_semana" style="text;html=1;align=center;verticalAlign=middle;resizable=0;points=[];autosize=1;strokeColor=none;fillColor=none;" vertex="1" parent="1">
          <mxGeometry x="510" y="910" width="90" height="30" as="geometry" />
        </mxCell>
        <mxCell id="C90hnJhmOTNESrinXxfF-34" style="rounded=0;orthogonalLoop=1;jettySize=auto;html=1;exitX=0;exitY=1;exitDx=0;exitDy=0;entryX=0.962;entryY=0.698;entryDx=0;entryDy=0;entryPerimeter=0;endArrow=oval;endFill=0;" edge="1" parent="1" source="8JAtajd1r-GjUV28Kf3z-41" target="C90hnJhmOTNESrinXxfF-33">
          <mxGeometry relative="1" as="geometry" />
        </mxCell>
        <mxCell id="C90hnJhmOTNESrinXxfF-35" value="nombre" style="text;html=1;align=center;verticalAlign=middle;resizable=0;points=[];autosize=1;strokeColor=none;fillColor=none;" vertex="1" parent="1">
          <mxGeometry x="590" y="490" width="60" height="30" as="geometry" />
        </mxCell>
        <mxCell id="C90hnJhmOTNESrinXxfF-36" style="rounded=0;orthogonalLoop=1;jettySize=auto;html=1;exitX=0.25;exitY=0;exitDx=0;exitDy=0;entryX=0.65;entryY=0.925;entryDx=0;entryDy=0;entryPerimeter=0;endArrow=oval;endFill=0;" edge="1" parent="1" source="kP8dAD_jrm5b0dCdeW7q-3" target="C90hnJhmOTNESrinXxfF-35">
          <mxGeometry relative="1" as="geometry" />
        </mxCell>
      </root>
    </mxGraphModel>
  </diagram>
</mxfile>
